<?xml version="1.0" encoding="utf-8"?>
<!-- Generator: Adobe Illustrator 19.2.0, SVG Export Plug-In . SVG Version: 6.00 Build 0)  -->
<!DOCTYPE svg PUBLIC "-//W3C//DTD SVG 1.1//EN" "http://www.w3.org/Graphics/SVG/1.1/DTD/svg11.dtd">
<svg version="1.1" id="Icons" xmlns="http://www.w3.org/2000/svg" xmlns:xlink="http://www.w3.org/1999/xlink" x="0px" y="0px"
	 viewBox="0 0 20 20" style="enable-background:new 0 0 20 20;" xml:space="preserve">
<style type="text/css">
	.st0{fill-rule:evenodd;clip-rule:evenodd;fill:#FFFFFF;}
</style>
<path id="YouTube" class="st0" d="M18.3,5.4c-0.2-0.4-0.6-1-1.4-1.1C16.2,4.2,13.8,4,10,4C6.2,4,3.8,4.2,3.1,4.3
	C2.3,4.4,1.9,5,1.7,5.4C1.5,5.8,1,6.2,1,10c0,3.2,0.5,4.2,0.7,4.6c0.2,0.4,0.6,1,1.4,1.1C3.8,15.8,6.2,16,10,16
	c3.8,0,6.2-0.2,6.9-0.3c0.8-0.1,1.2-0.7,1.4-1.1c0.2-0.4,0.7-0.8,0.7-4.6C19,6.8,18.5,5.8,18.3,5.4z M8,13.1V6.9l5.1,3.1L8,13.1z"/>
</svg>
