<?xml version="1.0" encoding="utf-8"?>
<!-- Generator: Adobe Illustrator 19.2.0, SVG Export Plug-In . SVG Version: 6.00 Build 0)  -->
<!DOCTYPE svg PUBLIC "-//W3C//DTD SVG 1.1//EN" "http://www.w3.org/Graphics/SVG/1.1/DTD/svg11.dtd">
<svg version="1.1" id="Icons" xmlns="http://www.w3.org/2000/svg" xmlns:xlink="http://www.w3.org/1999/xlink" x="0px" y="0px"
	 viewBox="0 0 20 20" style="enable-background:new 0 0 20 20;" xml:space="preserve">
<style type="text/css">
	.st0{fill-rule:evenodd;clip-rule:evenodd;fill:#FFFFFF;}
</style>
<g id="LinkedIn">
	<rect x="2.6" y="7.4" class="st0" width="3" height="10.1"/>
	<path class="st0" d="M4.1,2.5C3,2.5,2.3,3.3,2.3,4.3C2.3,5.2,3,6,4,6h0c1.1,0,1.8-0.8,1.8-1.7C5.8,3.3,5.2,2.5,4.1,2.5z"/>
	<path class="st0" d="M13.9,7.2c-1.8,0-2.6,1-3,1.7v0h0c0,0,0,0,0,0V7.4H7.6c0,0.9,0,10.1,0,10.1h3.1v-5.6c0-0.3,0-0.6,0.1-0.8
		c0.2-0.6,0.9-1.2,1.8-1.2c1.2,0,1.9,0.9,1.9,2.3v5.4h3.1v-5.8C17.7,8.6,16.1,7.2,13.9,7.2z"/>
</g>
</svg>
