<?xml version="1.0" encoding="utf-8"?>
<!-- Generator: Adobe Illustrator 19.2.0, SVG Export Plug-In . SVG Version: 6.00 Build 0)  -->
<!DOCTYPE svg PUBLIC "-//W3C//DTD SVG 1.1//EN" "http://www.w3.org/Graphics/SVG/1.1/DTD/svg11.dtd">
<svg version="1.1" id="Icons" xmlns="http://www.w3.org/2000/svg" xmlns:xlink="http://www.w3.org/1999/xlink" x="0px" y="0px"
	 viewBox="0 0 20 20" style="enable-background:new 0 0 20 20;" xml:space="preserve">
<style type="text/css">
	.st0{fill:#FFFFFF;}
</style>
<path id="Twitter" class="st0" d="M19.1,4.4c-0.7,0.3-1.4,0.5-2.1,0.6c0.8-0.5,1.4-1.2,1.6-2.1c-0.7,0.4-1.5,0.7-2.4,0.9
	c-0.7-0.7-1.7-1.2-2.7-1.2c-2.1,0-3.7,1.7-3.7,3.7c0,0.3,0,0.6,0.1,0.9C6.8,7,4,5.5,2.2,3.3C1.8,3.8,1.7,4.5,1.7,5.2
	c0,1.3,0.7,2.4,1.7,3.1c-0.6,0-1.2-0.2-1.7-0.5c0,0,0,0,0,0c0,1.8,1.3,3.3,3,3.7c-0.3,0.1-0.6,0.1-1,0.1c-0.2,0-0.5,0-0.7-0.1
	c0.5,1.5,1.9,2.6,3.5,2.6c-1.3,1-2.9,1.6-4.6,1.6c-0.3,0-0.6,0-0.9-0.1c1.7,1.1,3.6,1.7,5.7,1.7c6.9,0,10.6-5.7,10.6-10.6
	c0-0.2,0-0.3,0-0.5C18,5.8,18.6,5.1,19.1,4.4z"/>
</svg>
