<?xml version="1.0" encoding="utf-8"?>
<!-- Generator: Adobe Illustrator 19.2.0, SVG Export Plug-In . SVG Version: 6.00 Build 0)  -->
<!DOCTYPE svg PUBLIC "-//W3C//DTD SVG 1.1//EN" "http://www.w3.org/Graphics/SVG/1.1/DTD/svg11.dtd">
<svg version="1.1" id="logo" xmlns="http://www.w3.org/2000/svg" xmlns:xlink="http://www.w3.org/1999/xlink" x="0px" y="0px"
	 viewBox="0 0 216.9 58.4" style="enable-background:new 0 0 216.9 58.4;" xml:space="preserve">
<style type="text/css">
	.st0{fill:none;}
	.st1{fill:#FFFFFF;}
	.st2{fill:#A0C4E6;}
	.st3{fill:#EF3E42;}
	.st4{fill:#9ACD6E;}
	.st5{fill:#429ED6;}
	.st6{fill:#CAE3B2;}
	.st7{fill:#7AC143;}
	.st8{fill:#007BC6;}
</style>
<g>
	<g>
		<g>
			<g>
				<g>
					<rect class="st0" width="216.9" height="58.4"/>
				</g>
			</g>
		</g>
	</g>
	<g>
		<path class="st1" d="M69.2,39.8h-1.4l-3.1-8.7c-0.3-0.7-0.6-1.6-0.9-2.6h-0.1c-0.3,1-0.6,1.8-0.9,2.6l-3.2,8.7h-1.4l-5.9-16.9h2
			l3.8,11.2c0.3,0.9,0.6,1.8,0.8,2.6l0,0c0.2-0.8,0.6-1.7,0.9-2.6l2.9-8l-1.2-3.3h2L67.6,34c0.3,1,0.7,1.8,0.9,2.6h0.1
			c0.2-0.8,0.4-1.6,0.7-2.5L73,22.9h2L69.2,39.8z"/>
		<path class="st1" d="M83.8,38.6c-0.9,1-2.3,1.5-3.8,1.5s-2.8-0.5-3.8-1.5c-1.1-1.1-1.7-2.8-1.7-4.8s0.6-3.7,1.7-4.8
			c1-1,2.3-1.6,3.8-1.6c1.6,0,2.9,0.6,3.8,1.6c1.1,1.1,1.7,2.8,1.7,4.8S84.9,37.4,83.8,38.6 M80,29c-2.3,0-3.6,1.8-3.6,4.7
			s1.4,4.8,3.6,4.8s3.6-1.9,3.6-4.8C83.6,30.9,82.3,29,80,29"/>
		<path class="st1" d="M90.1,40.1c-1.5,0-2.1-0.9-2.1-2.2V21.7h1.9V37c0,1.2,0.3,1.4,1,1.4c0.1,0,0.3,0,0.6-0.1l0.2,1.4
			C91.1,40,90.7,40.1,90.1,40.1"/>
		<path class="st1" d="M97.1,40.1c-1.7,0-2.6-1-2.6-2.6v-8.2h-2v-1.6h2V25l1.9-0.6v3.3h3.7l-0.7,1.6h-3v7.6c0,1,0.4,1.5,1.2,1.5
			c0.9,0,1.7-0.5,2.1-0.9l0.6,1.3C99.4,39.5,98.3,40.1,97.1,40.1"/>
		<path class="st1" d="M103.1,34.1c0,2.3,1.3,4.3,4,4.3c1,0,2.1-0.4,2.9-0.9l0.6,1.3c-0.9,0.7-2.4,1.2-3.8,1.2
			c-3.8,0-5.6-3.1-5.6-6.5c0-3.5,2-6.1,4.9-6.1c3.1,0,4.8,2.5,4.8,6.2V34L103.1,34.1L103.1,34.1z M106,29c-1.8,0-2.9,1.6-2.9,3.5
			h5.7C108.8,30.8,107.9,29,106,29"/>
		<path class="st1" d="M119,29.6c-0.3-0.1-0.6-0.2-1.1-0.2c-0.7,0-1.9,0.6-2.7,1.5v9h-1.9V27.7h1.5l0.3,1.4c1.7-1.5,2.6-1.7,3.4-1.7
			c0.5,0,1,0.2,1.2,0.4L119,29.6z"/>
		<path class="st1" d="M186.2,34.1c0,2.3,1.3,4.3,4,4.3c1,0,2.1-0.4,2.9-0.9l0.6,1.3c-0.9,0.7-2.4,1.2-3.8,1.2
			c-3.8,0-5.6-3.1-5.6-6.5c0-3.5,2-6.1,4.9-6.1c3.1,0,4.8,2.5,4.8,6.2V34L186.2,34.1L186.2,34.1z M189.1,29c-1.8,0-2.9,1.6-2.9,3.5
			h5.7C191.9,30.8,191,29,189.1,29"/>
		<path class="st1" d="M202.2,29.6c-0.3-0.1-0.6-0.2-1.1-0.2c-0.7,0-1.9,0.6-2.7,1.5v9h-1.9V27.7h1.5l0.3,1.4
			c1.7-1.5,2.6-1.7,3.4-1.7c0.5,0,1,0.2,1.2,0.4L202.2,29.6z"/>
		<path class="st1" d="M123.8,40.1c-1.7,0-2.8-0.5-3.6-0.9l0.7-1.5c0.6,0.4,1.6,0.9,2.9,0.9c1.5,0,2.6-0.7,2.6-1.8
			c0-3-5.5-1.9-5.5-6.2c0-1.7,1.3-3.2,4-3.2c1.3,0,2.2,0.3,3,0.6v1.6c-0.8-0.4-1.7-0.7-3-0.7c-1.2,0-2.2,0.4-2.2,1.5
			c0,2.7,5.6,2,5.6,6C128.4,39,126.3,40.1,123.8,40.1"/>
		<polygon class="st1" points="144.9,39.8 138.2,32.2 138.2,32.2 138.2,39.8 136.3,39.8 136.3,23 138.2,23 138.2,30.7 138.2,30.7 
			144.4,23 146.8,23 139.8,31.3 147.4,39.8 		"/>
		<path class="st1" d="M151.3,40.1c-1.5,0-2.1-0.9-2.1-2.2V21.7h1.9V37c0,1.2,0.3,1.4,1,1.4c0.1,0,0.3,0,0.6-0.1l0.2,1.4
			C152.3,40,151.9,40.1,151.3,40.1"/>
		<path class="st1" d="M162.8,39.8l-0.5-1.3c-0.9,0.8-2.3,1.5-3.9,1.5c-1.6,0-3.7-0.8-3.7-4.2v-8.1h1.9v7.9c0,2,0.8,2.8,2.4,2.8
			c1.5,0,2.7-1,3.2-1.6v-9.1h1.9v7c0,3.8,0.1,4.6,0.3,5.1C164.3,39.8,162.8,39.8,162.8,39.8z"/>
		<polygon class="st1" points="179.4,39.8 177.7,39.8 174.7,30.1 174.7,30.1 171.7,39.8 170,39.8 166,27.7 167.9,27.7 170.8,37.3 
			170.9,37.3 173.9,27.7 175.6,27.7 178.6,37.3 178.7,37.3 181.6,27.7 183.4,27.7 		"/>
	</g>
	<g>
		<g>
			<path class="st1" d="M44.2,37.6h0.7c0.1,0,0.3,0,0.3,0.1c0.3,0.1,0.4,0.3,0.4,0.6c0,0.4-0.3,0.5-0.5,0.6l0,0
				c0.1,0.1,0.4,0.5,0.6,1h-0.5C45,39.3,44.8,39,44.7,39h-0.1v0.9h-0.4V37.6z M44.8,38.6c0.2,0,0.4-0.1,0.4-0.3
				c0-0.1-0.1-0.2-0.2-0.3c-0.1,0-0.1,0-0.2,0h-0.1L44.8,38.6L44.8,38.6z"/>
		</g>
	</g>
	<path class="st2" d="M32.7,14.6c-1.1-0.3-2.3-0.4-3.5-0.4s-2.4,0.2-3.5,0.4v4h7.1L32.7,14.6L32.7,14.6z"/>
	<rect x="25.7" y="25.7" class="st3" width="7.1" height="7.1"/>
	<rect x="25.7" y="32.7" class="st4" width="7.1" height="7.1"/>
	<path class="st5" d="M25.7,43.8c1.1,0.3,2.3,0.4,3.5,0.4s2.4-0.2,3.5-0.4v-4h-7.1v4H25.7z"/>
	<rect x="25.7" y="18.6" class="st6" width="7.1" height="7.1"/>
	<rect x="18.6" y="25.7" class="st6" width="7.1" height="7.1"/>
	<rect x="18.6" y="32.7" class="st7" width="7.1" height="7.1"/>
	<path class="st8" d="M18.6,39.8c1.9,1.9,4.4,3.3,7.1,4v-4H18.6z"/>
	<rect x="18.6" y="18.6" class="st4" width="7.1" height="7.1"/>
	<path class="st5" d="M25.7,14.6c-2.7,0.7-5.2,2-7.1,4h7.1V14.6z"/>
	<path class="st8" d="M18.6,39.8v-7.1h-4C15.3,35.5,16.6,37.9,18.6,39.8z"/>
	<path class="st5" d="M18.6,18.6c-1.9,1.9-3.3,4.4-4,7.1h4V18.6z"/>
	<rect x="32.7" y="25.7" class="st4" width="7.1" height="7.1"/>
	<rect x="32.7" y="32.7" class="st7" width="7.1" height="7.1"/>
	<path class="st8" d="M39.8,39.8h-7.1v4C35.5,43.1,37.9,41.7,39.8,39.8z"/>
	<rect x="32.7" y="18.6" class="st7" width="7.1" height="7.1"/>
	<path class="st8" d="M32.7,14.6v4h7.1C37.9,16.6,35.5,15.3,32.7,14.6z"/>
	<path class="st8" d="M39.8,39.8c1.9-1.9,3.3-4.4,4-7.1h-4V39.8z"/>
	<path class="st8" d="M39.8,18.6v7.1h4C43.1,22.9,41.7,20.5,39.8,18.6z"/>
	<path class="st2" d="M14.6,25.7c-0.3,1.1-0.4,2.3-0.4,3.5s0.2,2.4,0.4,3.5h4v-7.1h-4V25.7z"/>
	<path class="st5" d="M43.8,32.7c0.3-1.1,0.4-2.3,0.4-3.5s-0.2-2.4-0.4-3.5h-4v7.1L43.8,32.7z"/>
	<path class="st1" d="M47,38.8c0,1.1-0.9,2-2,2s-2-0.9-2-2s0.9-2,2-2S47,37.6,47,38.8z M44.9,37.1c-0.9,0-1.6,0.7-1.6,1.6
		s0.7,1.6,1.6,1.6c0.9,0,1.6-0.7,1.6-1.6S45.8,37.1,44.9,37.1z"/>
</g>
</svg>
