<svg id="Layer_1" enable-background="new 0 0 256 256" height="512" viewBox="0 0 256 256" width="512" xmlns="http://www.w3.org/2000/svg"><path d="m55.912 26.252c-.974 11.564-13.024 13.39-13.024 13.39 10.347.487 12.925 14.059 12.925 14.059.221-9.677 13.321-14.202 13.321-14.202-9.814-.588-13.222-13.247-13.222-13.247z" fill="#d5de58"/><path d="m69.223 38.001c-8.604-.515-11.831-12.024-11.863-12.141-.191-.702-.864-1.162-1.583-1.102-.725.066-1.298.642-1.359 1.367-.86 10.215-11.314 11.964-11.755 12.032-.763.116-1.313.791-1.273 1.561.04.771.657 1.385 1.427 1.421 9.028.426 11.499 12.719 11.523 12.844.137.711.759 1.217 1.472 1.217.042 0 .085-.002.127-.005.764-.064 1.357-.693 1.375-1.46.195-8.51 12.192-12.778 12.313-12.82.675-.234 1.092-.914.994-1.622-.1-.709-.684-1.25-1.398-1.292zm-13.566 10.347c-1.357-3.131-3.708-6.908-7.587-8.877 2.931-1.405 6.41-3.914 8.203-8.273 1.551 3.071 4.199 6.88 8.334 8.723-3.008 1.639-6.923 4.404-8.95 8.427z" fill="#3a312a"/><path d="m34.213 43.233c-.689 8.179-9.212 9.47-9.212 9.47 7.318.344 9.142 9.944 9.142 9.944.156-6.844 9.422-10.045 9.422-10.045-6.941-.415-9.352-9.369-9.352-9.369z" fill="#d5de58"/><path d="m43.654 51.104c-5.766-.345-7.972-8.186-7.993-8.265-.19-.702-.854-1.175-1.582-1.102-.726.065-1.299.643-1.36 1.368-.579 6.871-7.647 8.066-7.942 8.113-.763.116-1.313.791-1.273 1.561.04.771.657 1.385 1.427 1.421 6.035.284 7.724 8.645 7.739 8.727.135.713.759 1.22 1.473 1.22.041 0 .083-.002.125-.005.765-.063 1.358-.693 1.376-1.461.13-5.709 8.331-8.634 8.412-8.662.677-.234 1.094-.913.996-1.622s-.683-1.251-1.398-1.293zm-9.584 6.795c-.924-1.886-2.34-3.947-4.447-5.279 1.856-1.041 3.697-2.63 4.871-4.917 1.057 1.874 2.654 3.954 4.941 5.224-1.85 1.1-3.989 2.74-5.365 4.972z" fill="#3a312a"/><path d="m34.175 16.575c-.657 8.182-9.175 9.507-9.175 9.507 7.319.316 9.181 9.908 9.181 9.908.129-6.845 9.383-10.082 9.383-10.082-6.943-.388-9.389-9.333-9.389-9.333z" fill="#d5de58"/><path d="m43.647 24.41c-5.747-.321-7.988-8.098-8.026-8.232-.192-.701-.86-1.177-1.586-1.096-.725.067-1.297.646-1.355 1.373-.552 6.873-7.615 8.097-7.911 8.145-.762.119-1.31.796-1.267 1.565.043.771.663 1.383 1.433 1.416 6.036.26 7.757 8.613 7.773 8.695.138.71.76 1.214 1.471 1.214.043 0 .087-.002.131-.006.765-.066 1.356-.698 1.37-1.466.108-5.709 8.297-8.666 8.378-8.694.675-.236 1.09-.917.99-1.626-.099-.708-.686-1.248-1.401-1.288zm-9.557 6.833c-.932-1.883-2.355-3.938-4.468-5.263 1.851-1.049 3.687-2.645 4.851-4.936 1.065 1.87 2.669 3.944 4.962 5.204-1.845 1.109-3.978 2.758-5.345 4.995z" fill="#3a312a"/><path d="m231 131.503c0-50.376-46.115-91.214-103-91.214-22.266 0-42.881 6.258-59.727 16.894l-11.319 8.278c-19.686 16.613-31.954 40.059-31.954 66.042 0 23.08 9.7 44.143 25.661 60.209l-16.224 40.883c-1.559 3.928 2.174 7.892 6.189 6.57l59.966-19.74c8.73 2.13 17.913 3.291 27.407 3.291 26.239 0 50.172-8.703 68.36-23.009.148-.116.301-.227.448-.344 1.005-.8 1.982-1.624 2.95-2.456 3.036-2.596 5.91-5.337 8.565-8.243-.022-.006-.043-.012-.064-.018 14.216-15.638 22.742-35.505 22.742-57.143z" fill="#f16c7a"/><path d="m128 38.789c-21.853 0-42.783 5.922-60.528 17.126-.701.442-.91 1.369-.468 2.069.443.701 1.37.909 2.069.468 17.265-10.901 37.642-16.663 58.927-16.663 55.968 0 101.5 40.245 101.5 89.714 0 20.638-7.729 40.049-22.352 56.135-.09.1-.163.21-.22.328-2.433 2.634-5.171 5.258-8.148 7.804-.785.675-1.824 1.56-2.906 2.419l-.441.34c-18.6 14.63-42.548 22.688-67.433 22.688-9.115 0-18.216-1.093-27.052-3.247-.273-.066-.558-.056-.825.032l-59.966 19.738c-1.319.435-2.673.09-3.623-.92-.951-1.01-1.214-2.382-.702-3.671l16.224-40.884c.22-.555.091-1.188-.33-1.611-16.268-16.372-25.226-37.38-25.226-59.151 0-24.749 11.159-47.796 31.422-64.896.633-.534.713-1.48.179-2.114-.535-.634-1.481-.714-2.114-.179-20.949 17.68-32.487 41.541-32.487 67.189 0 22.258 9.016 43.729 25.406 60.564l-15.863 39.975c-.938 2.364-.438 4.983 1.306 6.836 1.254 1.331 2.943 2.045 4.691 2.045.683 0 1.375-.109 2.055-.333l59.56-19.605c8.937 2.145 18.134 3.231 27.344 3.231 25.555 0 50.161-8.285 69.284-23.327l.457-.352c1.122-.892 2.189-1.801 2.991-2.49 3.186-2.725 6.112-5.541 8.698-8.371.097-.105.175-.224.235-.349 14.728-16.356 22.834-36.874 22.834-57.824.002-51.123-46.877-92.714-104.498-92.714z" fill="#3a312a"/><path d="m91.513 112.727v-10.412h-37.019v48.456h15.038v-19.799h18.775v-9.784h-18.775v-8.461z" fill="#fce8cb"/><path d="m91.513 100.815h-37.019c-.829 0-1.5.672-1.5 1.5v48.455c0 .828.671 1.5 1.5 1.5h15.038c.829 0 1.5-.672 1.5-1.5v-18.299h17.274c.829 0 1.5-.672 1.5-1.5v-9.783c0-.828-.671-1.5-1.5-1.5h-17.274v-5.462h20.481c.829 0 1.5-.672 1.5-1.5v-10.411c0-.828-.672-1.5-1.5-1.5zm-1.5 10.412h-20.481c-.829 0-1.5.672-1.5 1.5v8.462c0 .828.671 1.5 1.5 1.5h17.274v6.783h-17.274c-.829 0-1.5.672-1.5 1.5v18.299h-12.038v-45.455h34.019z" fill="#3a312a"/><path d="m126.269 102.315h-16.332l-18.212 48.455h15.287l2.362-7.999h16.999l2.424 7.999h15.68zm-13.643 29.979 5.292-17.419 5.349 17.419z" fill="#fce8cb"/><path d="m145.881 150.243-18.208-48.455c-.22-.585-.779-.973-1.404-.973h-16.332c-.625 0-1.184.388-1.404.973l-18.213 48.455c-.173.46-.109.977.171 1.381.28.405.741.646 1.233.646h15.287c.665 0 1.251-.438 1.439-1.075l2.045-6.924h14.765l2.101 6.934c.192.633.775 1.065 1.436 1.065h15.68c.492 0 .953-.241 1.233-.646.28-.404.344-.921.171-1.381zm-15.971-.972-2.102-6.934c-.192-.633-.775-1.065-1.436-1.065h-16.999c-.665 0-1.251.438-1.439 1.075l-2.045 6.924h-12l17.085-45.455h14.255l17.081 45.455zm-10.558-34.836c-.193-.63-.775-1.06-1.434-1.06h-.003c-.66.001-1.241.433-1.433 1.064l-5.292 17.419c-.138.454-.053.947.23 1.329s.73.606 1.205.606h10.641c.476 0 .923-.226 1.206-.608.283-.383.367-.877.228-1.332zm-4.703 16.359 3.276-10.784 3.311 10.784z" fill="#3a312a"/><path d="m198.035 146.144c-.573-.331-1.796-1.146-3.669-2.446 3.525-4.297 5.289-10.025 5.289-17.188 0-8.043-2.188-14.224-6.561-18.543-4.374-4.318-10.582-6.478-18.625-6.478-7.889 0-14.031 2.209-18.427 6.627s-6.594 10.615-6.594 18.592c0 8.22 2.512 14.599 7.536 19.138 4.252 3.834 10.059 5.751 17.418 5.751 4.979 0 9.123-.716 12.428-2.148.815.706 2.248 1.757 4.297 3.156 2.05 1.399 4.121 2.605 6.214 3.62l4.165-8.396c-1.454-.639-2.612-1.201-3.471-1.685zm-15.138-10.115c-.595-.375-1.146-.738-1.653-1.091-2.137-1.498-3.575-2.424-4.313-2.776-.739-.353-1.768-.65-3.091-.893l-2.347 5.388c2.71 1.08 4.693 2.226 5.949 3.438-.903.198-1.862.297-2.875.297-3.151 0-5.631-1.068-7.438-3.206-1.807-2.137-2.71-5.85-2.71-11.139 0-4.539.926-7.877 2.776-10.015 1.851-2.137 4.264-3.206 7.238-3.206 3.195 0 5.702 1.047 7.52 3.14 1.818 2.094 2.727 5.586 2.727 10.478.002 4.252-.593 7.448-1.783 9.585z" fill="#fce8cb"/><path d="m174.435 111.326c-3.415 0-6.232 1.253-8.372 3.725-2.085 2.408-3.143 6.108-3.143 10.996 0 5.708 1.002 9.668 3.064 12.106 2.096 2.48 4.983 3.738 8.583 3.738 1.118 0 2.193-.111 3.196-.332.54-.118.972-.524 1.122-1.057.15-.532-.004-1.104-.401-1.487-1.169-1.128-2.816-2.165-5.011-3.149l1.252-2.875c.639.159 1.16.334 1.558.524.455.217 1.535.854 4.104 2.654.524.364 1.095.74 1.71 1.128.349.22.772.286 1.171.185.399-.102.739-.363.939-.724 1.328-2.387 1.974-5.761 1.974-10.315 0-5.314-1.012-9.063-3.094-11.461-2.107-2.425-5.017-3.656-8.652-3.656zm7.804 22.477c-.045-.031-.09-.062-.134-.093-2.225-1.56-3.705-2.509-4.528-2.901-.868-.415-2.003-.746-3.466-1.015-.688-.125-1.367.237-1.646.877l-2.347 5.388c-.162.372-.167.794-.012 1.17.154.375.454.672.831.822.521.207 1.012.417 1.474.628-1.683-.358-3.047-1.173-4.136-2.462-1.563-1.849-2.355-5.27-2.355-10.17 0-4.146.81-7.186 2.41-9.032 1.566-1.81 3.563-2.688 6.104-2.688 2.765 0 4.854.858 6.387 2.623 1.565 1.803 2.359 4.997 2.359 9.494.002 3.052-.315 5.518-.941 7.359zm20.677 13.514c-.14-.386-.432-.697-.807-.861-1.398-.614-2.521-1.159-3.324-1.611-.292-.169-.921-.566-2.275-1.491 3.084-4.392 4.646-10.049 4.646-16.844 0-8.421-2.357-15.019-7.008-19.61-4.645-4.585-11.265-6.91-19.679-6.91-8.266 0-14.823 2.378-19.49 7.069-4.665 4.688-7.03 11.299-7.03 19.649 0 8.623 2.702 15.437 8.031 20.252 4.517 4.072 10.715 6.137 18.423 6.137 4.749 0 8.836-.646 12.167-1.923.872.686 2.097 1.566 3.712 2.67 2.098 1.432 4.253 2.687 6.405 3.73.211.103.434.15.653.15.552 0 1.083-.306 1.345-.833l4.165-8.396c.182-.366.206-.792.066-1.178zm-6.247 6.886c-1.578-.832-3.152-1.783-4.696-2.837-2.001-1.367-3.4-2.394-4.161-3.052-.277-.241-.627-.366-.981-.366-.202 0-.405.041-.597.124-3.099 1.343-7.079 2.024-11.831 2.024-6.943 0-12.466-1.805-16.412-5.364-4.673-4.221-7.042-10.285-7.042-18.024 0-7.529 2.071-13.429 6.157-17.534 4.083-4.104 9.925-6.185 17.363-6.185 7.597 0 13.509 2.034 17.571 6.045 4.058 4.007 6.115 9.887 6.115 17.476 0 6.771-1.665 12.233-4.948 16.236-.266.323-.384.743-.326 1.158.058.414.286.786.63 1.025 1.918 1.332 3.152 2.154 3.788 2.521.594.335 1.321.704 2.173 1.104z" fill="#3a312a"/><path d="m128 41.792c-2.86 0-5.7.11-8.5.31 52.01 3.83 93 42.46 93 89.4 0 20.64-7.73 40.05-22.35 56.13-.1.11-.17.22-.23.35-2.43 2.63-5.17 5.25-8.14 7.79-1.15.99-2.05 1.73-2.9 2.41l-.45.35c-16.47 12.95-37.13 20.75-58.92 22.36 2.82.22 5.66.32 8.49.32 24.88 0 48.83-8.05 67.43-22.68l.45-.35c.85-.68 1.75-1.42 2.9-2.41 2.97-2.54 5.71-5.16 8.14-7.79.06-.13.13-.24.23-.35 14.62-16.08 22.35-35.49 22.35-56.13 0-49.47-45.53-89.71-101.5-89.71z" fill="#d34e5c"/></svg>